<svg width="32" height="34" viewBox="0 0 32 34" fill="none" xmlns="http://www.w3.org/2000/svg">
<path d="M30.3257 23.761H21.9895C21.4974 23.761 21.0977 23.3607 21.0977 22.8691V17.7311C21.0977 17.2391 21.498 16.8393 21.9895 16.8393H30.3257C30.8178 16.8393 31.2176 17.2396 31.2176 17.7311V22.8691C31.2176 23.3612 30.8173 23.761 30.3257 23.761ZM21.9895 17.6917C21.9677 17.6917 21.9501 17.7094 21.9501 17.7311V22.8691C21.9501 22.8909 21.9677 22.9086 21.9895 22.9086H30.3257C30.3475 22.9086 30.3651 22.8909 30.3651 22.8691V17.7311C30.3651 17.7094 30.3475 17.6917 30.3257 17.6917H21.9895Z" fill="#FBBF24"/>
<path d="M28.1863 33.0747H24.1273C23.3013 33.0747 22.4935 32.7895 21.8521 32.2715C21.2205 31.7613 20.7741 31.0467 20.5941 30.2591C20.534 29.9952 20.5039 29.7235 20.5039 29.4518V25.6427C20.5039 25.0039 21.024 24.4844 21.6628 24.4844H30.6508C31.2896 24.4844 31.8092 25.0039 31.8092 25.6427V29.4518C31.8092 31.4496 30.1836 33.0752 28.1858 33.0752L28.1863 33.0747ZM21.6628 25.3363C21.4938 25.3363 21.3569 25.4737 21.3569 25.6422V29.4513C21.3569 29.6597 21.3802 29.8676 21.4258 30.0693C21.7146 31.3366 22.8253 32.2217 24.1273 32.2217H28.1863C29.7138 32.2217 30.9567 30.9788 30.9567 29.4513V25.6422C30.9567 25.4737 30.8193 25.3363 30.6508 25.3363H21.6628Z" fill="#FBBF24"/>
<path d="M29.6831 16.116H22.6313C21.5704 16.116 20.707 15.2526 20.707 14.1918V12.2878C20.707 12.0223 20.7604 11.7641 20.8662 11.5209L23.0419 6.51353C23.3473 5.81042 24.0401 5.3562 24.8064 5.3562H27.5069C28.2733 5.3562 28.966 5.81042 29.2719 6.51353L31.4476 11.5209C31.5534 11.7641 31.6068 12.0223 31.6068 12.2878V14.1918C31.6068 15.2526 30.7435 16.116 29.6826 16.116H29.6831ZM24.807 6.20916C24.3802 6.20916 23.9944 6.4622 23.8244 6.85368L21.6487 11.861C21.5895 11.9964 21.56 12.14 21.56 12.2878V14.1918C21.56 14.7823 22.0407 15.263 22.6313 15.263H29.6831C30.2737 15.263 30.7544 14.7823 30.7544 14.1918V12.2878C30.7544 12.14 30.7243 11.9964 30.6657 11.861L28.49 6.85368C28.3199 6.4622 27.9341 6.20916 27.5074 6.20916H24.807Z" fill="#FBBF24"/>
<path d="M28.1844 4.63337H24.1306C23.7272 4.63337 23.3984 4.30515 23.3984 3.90122V2.87922C23.3984 1.80174 24.2753 0.924927 25.3527 0.924927H26.9622C28.0397 0.924927 28.9165 1.80174 28.9165 2.87922V3.90122C28.9165 4.30463 28.5883 4.63337 28.1844 4.63337ZM24.2514 3.78041H28.0636V2.87922C28.0636 2.27204 27.5694 1.77789 26.9622 1.77789H25.3527C24.7455 1.77789 24.2514 2.27204 24.2514 2.87922V3.78041Z" fill="#FBBF24"/>
<path d="M5.51975 30.5925C4.51435 30.5925 3.76768 30.3311 3.29946 29.8147C2.98161 29.4647 2.89968 29.1033 2.87894 28.9612L1.0719 22.7789C1.03405 22.6498 1.05946 22.5108 1.13983 22.4035C1.2202 22.2962 1.34672 22.2329 1.48102 22.2329H9.09753C9.21057 22.2329 9.31894 22.278 9.39931 22.3579L10.9486 23.9072H15.8264L17.3757 22.3579C17.4555 22.278 17.5639 22.2329 17.6775 22.2329H21.5238C21.7592 22.2329 21.9501 22.4237 21.9501 22.6591V22.8691C21.9501 22.8909 21.9677 22.9085 21.9895 22.9085H25.0964C25.2307 22.9085 25.3572 22.9718 25.4376 23.0791C25.518 23.1865 25.5434 23.3254 25.5055 23.4545L25.0451 25.0303C24.9922 25.2123 24.8252 25.3373 24.636 25.3373H21.6638C21.4948 25.3373 21.3579 25.4747 21.3579 25.6432V29.4522C21.3579 29.6607 21.3812 29.8686 21.4269 30.0703C21.4559 30.1974 21.4248 30.3306 21.3434 30.4322C21.262 30.5339 21.1391 30.5909 21.0079 30.5914C18.3578 30.5707 7.68768 30.5722 5.57887 30.593C5.55916 30.593 5.53998 30.593 5.52027 30.593L5.51975 30.5925ZM3.72361 28.8419C3.7345 28.9213 3.89109 29.7577 5.57005 29.7395C7.56635 29.7193 17.2305 29.7172 20.5158 29.7348C20.5086 29.6405 20.5049 29.5461 20.5049 29.4517V25.6427C20.5049 25.0039 21.025 24.4843 21.6638 24.4843H24.3166L24.5276 23.7615H21.9895C21.5721 23.7615 21.221 23.4737 21.1241 23.0859H17.8543L16.3049 24.6352C16.2251 24.7151 16.1167 24.7602 16.0032 24.7602H10.7723C10.6593 24.7602 10.5509 24.7151 10.4706 24.6352L8.92124 23.0859H2.05035L3.70753 28.7554C3.71739 28.7896 3.72257 28.8082 3.72361 28.8425V28.8419Z" fill="#FBBF24"/>
<path d="M15.8605 22.7597H10.9143C10.8013 22.7597 10.6929 22.7146 10.6126 22.6348L9.19442 21.2166H0.627975C0.392568 21.2166 0.201753 21.0258 0.201753 20.7904V19.0601C0.181531 18.9025 0.156641 18.4332 0.491604 18.0272C0.800123 17.6534 1.30257 17.4641 1.98494 17.4641H21.5238C21.7592 17.4641 21.95 17.6549 21.95 17.8903V20.7899C21.95 21.0253 21.7592 21.2161 21.5238 21.2161H17.5804L16.1628 22.6343C16.0829 22.7141 15.9746 22.7592 15.861 22.7592L15.8605 22.7597ZM11.0912 21.9068H15.6842L17.1018 20.4886C17.1817 20.4088 17.29 20.3637 17.4036 20.3637H21.0975V18.3171H1.98494C1.57479 18.3171 1.28598 18.4047 1.14909 18.5706C1.0179 18.7293 1.04642 18.9466 1.04694 18.9486C1.05212 18.9751 1.05472 19.002 1.05472 19.029V20.3642H9.37175C9.48479 20.3642 9.59316 20.4093 9.67353 20.4891L11.0917 21.9073L11.0912 21.9068Z" fill="#FBBF24"/>
</svg>
