<svg width="34" height="36" viewBox="0 0 34 36" fill="none" xmlns="http://www.w3.org/2000/svg">
<path d="M2.49945 35.1909C2.05508 35.1909 1.62523 35.0338 1.24049 34.7238C0.0297496 33.7479 0.312342 32.4718 0.631231 31.9336C0.634861 31.9274 0.63849 31.9217 0.642638 31.916L8.6776 19.7951C8.76056 19.6696 8.90523 19.5996 9.05508 19.6115C9.20493 19.6235 9.33612 19.7163 9.39834 19.8532C9.73019 20.5869 10.1435 21.2122 10.5935 21.6623C10.9695 22.0382 12.0106 22.5401 12.3803 22.7019C12.496 22.7527 12.582 22.8533 12.6142 22.9752C12.6463 23.097 12.6209 23.2272 12.5452 23.3283L4.28419 34.3261C4.27693 34.3359 4.26916 34.3452 4.26086 34.3546C4.22405 34.395 3.88805 34.759 3.36745 34.9949C3.07812 35.1261 2.78619 35.1915 2.50049 35.1915L2.49945 35.1909ZM1.33849 32.3609C1.27056 32.4832 0.843824 33.3424 1.75901 34.0808C2.65242 34.801 3.52301 33.9325 3.63553 33.8132L11.5787 23.2391C11.0975 23.0032 10.3789 22.6158 10.0097 22.2461C9.63271 21.8692 9.28064 21.3921 8.97367 20.8441L1.33901 32.3614L1.33849 32.3609Z" fill="#FBBF24"/>
<path d="M13.1553 31.5234C12.5907 31.5234 11.9949 31.3077 11.6262 30.6165C10.9604 29.369 11.1409 28.4242 12.1935 27.6433C12.8235 27.1761 16.5345 25.1964 18.1098 24.3621L12.0307 21.2127C11.8974 21.1479 10.7364 20.5464 10.4611 19.1018C10.1977 17.7184 10.7385 16.8286 10.8215 16.7031L15.9543 8.35185L14.1042 7.09392L8.51199 8.64792C8.48295 8.6557 8.45339 8.66089 8.42332 8.66244C7.84673 8.69355 6.66295 8.42185 6.31554 7.17222C6.08013 6.32496 6.30984 5.752 6.54369 5.42118C6.78273 5.08311 7.16228 4.81504 7.55895 4.70511L14.0192 2.91C14.2266 2.83481 14.9038 2.70778 16.1342 3.55452C17.3092 4.36289 23.2612 8.47889 23.7051 8.78585C23.9716 8.92637 24.3771 9.3614 24.9132 10.0806C25.5152 10.8884 26.1955 11.7388 26.5051 12.122L31.5041 10.7329C31.6058 10.7018 32.0973 10.5758 32.6112 10.862C33.0685 11.1171 33.3848 11.6066 33.5518 12.3175C33.7213 13.0382 33.6601 13.6267 33.3698 14.067C33.068 14.5248 32.6272 14.6503 32.5075 14.6767L26.0597 16.4682C25.9446 16.5138 25.6941 16.5787 25.3436 16.4796C24.8562 16.3417 24.3491 15.9404 23.8352 15.2865C23.1503 14.4149 22.5841 13.6936 22.2522 13.271L18.2342 18.2125L23.8394 22.916C23.8539 22.9284 23.8679 22.9419 23.8809 22.9559C23.9519 23.0353 24.5752 23.7529 24.5181 24.5918C24.4896 25.0134 24.2884 25.394 23.9369 25.6927C22.8832 26.5861 18.6641 28.7955 18.4084 28.9293L14.3142 31.2439C14.308 31.2476 14.3018 31.2507 14.2955 31.2538C14.0166 31.3933 13.595 31.525 13.1543 31.525L13.1553 31.5234ZM14.1784 6.23059C14.2603 6.23059 14.3417 6.25496 14.4107 6.30215L16.745 7.88985C16.9275 8.01377 16.9804 8.25955 16.8648 8.44778L11.5215 17.1418C11.5173 17.1485 11.5127 17.1558 11.508 17.1625C11.4919 17.1869 11.0621 17.8428 11.2726 18.9473C11.48 20.0361 12.3796 20.4644 12.3889 20.4686C12.3947 20.4712 12.3998 20.4738 12.4055 20.4764L19.1914 23.9924C19.3278 24.0635 19.4138 24.204 19.4144 24.358C19.4149 24.512 19.3298 24.653 19.1935 24.7246C17.5907 25.5677 13.2969 27.8544 12.6861 28.3076C12.0711 28.7638 11.8196 29.2243 12.3552 30.2281C12.5388 30.5724 12.8204 30.7202 13.2409 30.6927C13.5764 30.671 13.8709 30.5403 13.9217 30.517L18.0092 28.2059C18.0133 28.2038 18.0175 28.2013 18.0211 28.1992C18.0647 28.1764 22.4098 25.9042 23.4038 25.0616C23.5858 24.9076 23.6807 24.7365 23.6947 24.5379C23.7232 24.1381 23.423 23.6912 23.2841 23.5263L17.3927 18.5827C17.22 18.4376 17.1951 18.1809 17.3377 18.0056L21.9385 12.3476C22.0168 12.2511 22.1345 12.1951 22.2589 12.1951C22.26 12.1951 22.2615 12.1951 22.2626 12.1951C22.3881 12.1961 22.5063 12.2542 22.5841 12.3533C22.5841 12.3533 23.3805 13.368 24.486 14.7753C25.1616 15.6355 25.6241 15.7361 25.7517 15.7013C25.7714 15.692 25.7921 15.6847 25.8129 15.679L32.2995 13.8767C32.3161 13.872 32.3192 13.8704 32.3348 13.8684C32.3659 13.8606 32.5593 13.8051 32.6879 13.6008C32.8388 13.3607 32.8595 12.9822 32.7481 12.5062C32.6381 12.0375 32.4515 11.7181 32.2093 11.5833C31.9822 11.4567 31.7551 11.52 31.753 11.5205C31.7463 11.5226 31.7395 11.5247 31.7328 11.5267L26.4667 12.99C26.3091 13.0341 26.1401 12.9801 26.0364 12.8536C26.027 12.8417 25.0688 11.6693 24.2521 10.5737C23.6294 9.73837 23.366 9.54548 23.3245 9.518C23.3027 9.50815 23.282 9.49622 23.2623 9.48222C23.1985 9.43815 16.8809 5.06911 15.6675 4.23429C14.7627 3.61155 14.3448 3.67689 14.3023 3.6857C14.2888 3.69089 14.2753 3.69555 14.2613 3.69918L7.78139 5.5C7.67976 5.52852 6.79569 5.80955 7.1125 6.95029C7.22191 7.34333 7.45732 7.60155 7.83273 7.74052C8.05569 7.82296 8.26258 7.83541 8.34398 7.83748L14.0689 6.24666C14.1052 6.23629 14.1426 6.23163 14.1794 6.23163L14.1784 6.23059ZM25.7247 15.7138C25.7247 15.7138 25.7247 15.7138 25.7242 15.7138C25.7242 15.7138 25.7242 15.7138 25.7247 15.7138ZM23.3712 9.53563C23.3712 9.53563 23.3717 9.53563 23.3722 9.53563C23.3722 9.53563 23.3717 9.53563 23.3712 9.53563ZM23.3701 9.53563C23.3701 9.53563 23.3707 9.53563 23.3712 9.53563C23.3712 9.53563 23.3707 9.53563 23.3701 9.53563ZM23.3691 9.53563H23.3696C23.3696 9.53563 23.3696 9.53563 23.3691 9.53563ZM23.3686 9.53563C23.3686 9.53563 23.3686 9.53563 23.3691 9.53563C23.3691 9.53563 23.3691 9.53563 23.3686 9.53563ZM14.3272 3.67429C14.3272 3.67429 14.3272 3.67429 14.3267 3.67429C14.3267 3.67429 14.3267 3.67429 14.3272 3.67429ZM14.3282 3.67378C14.3282 3.67378 14.3277 3.67378 14.3272 3.67378C14.3272 3.67378 14.3277 3.67378 14.3282 3.67378Z" fill="#FBBF24"/>
<path d="M25.8362 8.50901C25.1813 8.50901 24.5347 8.34049 23.9488 8.00916C23.0538 7.5036 22.4093 6.67967 22.1345 5.6893C21.8591 4.69893 21.9862 3.66086 22.4917 2.7659C22.9973 1.87093 23.8212 1.22641 24.8116 0.9516C25.8019 0.676266 26.84 0.803303 27.735 1.30886C28.6299 1.81441 29.2739 2.63834 29.5493 3.62871C29.8246 4.61908 29.6976 5.65716 29.192 6.55212C28.6865 7.44708 27.8625 8.0916 26.8722 8.36641C26.5299 8.4613 26.182 8.50849 25.8362 8.50849V8.50901ZM25.8465 1.63604C25.5748 1.63604 25.3016 1.67286 25.033 1.74753C24.2552 1.96375 23.6081 2.46982 23.2109 3.17241C22.8137 3.87501 22.7142 4.69064 22.9304 5.46841C23.1466 6.24619 23.6527 6.8933 24.3553 7.29049C25.0579 7.68767 25.8735 7.78723 26.6513 7.57101C27.4291 7.35478 28.0762 6.84871 28.4733 6.14612C28.8705 5.44353 28.9701 4.62789 28.7539 3.85012C28.5376 3.07234 28.0316 2.42523 27.329 2.02804C26.8691 1.76827 26.3609 1.63552 25.8471 1.63552L25.8465 1.63604Z" fill="#FBBF24"/>
</svg>
