<?xml version="1.0" encoding="UTF-8"?>
<svg id="Layer_2" xmlns="http://www.w3.org/2000/svg" viewBox="0 0 1080 426">
  <defs>
    <style>
      .cls-1, .cls-2 {
        fill: #f4f4f5;
      }

      .cls-3, .cls-2 {
        isolation: isolate;
      }

      .cls-2 {
        font-family: ArialMT, Arial;
        font-size: 63.74px;
      }

      .cls-4 {
        letter-spacing: -.06em;
      }
    </style>
  </defs>
  <g>
    <g>
      <rect class="cls-1" x="156" width="44" height="424"/>
      <rect class="cls-1" x="104" y="52" width="44" height="320"/>
      <rect class="cls-1" x="52" y="88" width="44" height="248"/>
      <rect class="cls-1" y="191.98" width="44" height="40"/>
    </g>
    <g>
      <rect class="cls-1" x="880" width="44" height="424"/>
      <rect class="cls-1" x="932" y="52" width="44" height="320"/>
      <rect class="cls-1" x="984" y="88" width="44" height="248"/>
      <rect class="cls-1" x="1036" y="192" width="44" height="40"/>
    </g>
  </g>
  <g>
    <polygon class="cls-1" points="384 191.76 256 191.76 256 124.76 220 124.76 220 294.76 256 294.76 256 227.76 384 227.76 384 294.76 420 294.76 420 124.76 384 124.76 384 191.76"/>
    <polygon class="cls-1" points="604 213.84 559.08 258.76 476 258.76 476 191.76 440 191.76 440 294.76 440 294.76 573.98 294.76 640 228.76 640 124.76 604 124.76 604 213.84"/>
    <polygon class="cls-1" points="793.98 124.76 660 124.76 660 160.76 779.06 160.76 810.06 191.76 810.06 191.76 660 191.76 660 227.76 810.08 227.76 779.08 258.76 660 258.76 660 294.76 793.98 294.76 860 228.76 860 190.78 793.98 124.76"/>
  </g>
  <g class="cls-3">
    <text class="cls-2" transform="translate(292.28 405.3)"><tspan x="0" y="0">C O</tspan><tspan class="cls-4" x="113.32" y="0" xml:space="preserve"> A</tspan><tspan x="166.51" y="0" xml:space="preserve"> C H I N G</tspan></text>
  </g>
</svg>