<?xml version="1.0" encoding="UTF-8"?><svg id="Layer_2" xmlns="http://www.w3.org/2000/svg" viewBox="0 0 1080 1080"><defs><style>.cls-1,.cls-2{fill:#f4f4f5;}.cls-2{font-family:MontserratThin-Bold, 'Montserrat Thin';font-size:31.87px;font-variation-settings:'wght' 700;}</style></defs><g><g><rect class="cls-1" x="348" y="434.36" width="22" height="212"/><rect class="cls-1" x="322" y="460.36" width="22" height="160"/><rect class="cls-1" x="296" y="478.36" width="22" height="124"/><rect class="cls-1" x="270" y="530.35" width="22" height="20"/></g><g><rect class="cls-1" x="710" y="434.36" width="22" height="212" transform="translate(1442 1080.72) rotate(180)"/><rect class="cls-1" x="736" y="460.36" width="22" height="160" transform="translate(1494 1080.72) rotate(180)"/><rect class="cls-1" x="762" y="478.36" width="22" height="124" transform="translate(1546 1080.72) rotate(180)"/><rect class="cls-1" x="788" y="530.35" width="22" height="20" transform="translate(1598 1080.71) rotate(180)"/></g></g><g><polygon class="cls-1" points="462 530.24 398 530.24 398 496.74 380 496.74 380 581.74 398 581.74 398 548.24 462 548.24 462 581.74 480 581.74 480 496.74 462 496.74 462 530.24"/><polygon class="cls-1" points="572 541.28 549.54 563.74 508 563.74 508 530.24 490 530.24 490 581.74 490 581.74 556.99 581.74 590 548.74 590 496.74 572 496.74 572 541.28"/><polygon class="cls-1" points="666.99 496.74 600 496.74 600 514.74 659.53 514.74 675.03 530.24 675.03 530.24 600 530.24 600 548.24 675.04 548.24 659.54 563.74 600 563.74 600 581.74 666.99 581.74 700 548.74 700 529.75 666.99 496.74"/></g><text class="cls-2" transform="translate(416.14 637.01)"><tspan x="0" y="0">C O A C H I N G</tspan></text></svg>