<svg width="32" height="33" viewBox="0 0 32 33" fill="none" xmlns="http://www.w3.org/2000/svg">
<path d="M24.4058 32.2172H7.64627C3.59923 32.2172 0.306641 28.9246 0.306641 24.8776V8.11801C0.306641 4.07097 3.59923 0.778381 7.64627 0.778381H24.4058C28.4529 0.778381 31.7455 4.07097 31.7455 8.11801V24.8776C31.7455 28.9246 28.4529 32.2172 24.4058 32.2172ZM7.64627 1.58312C4.04309 1.58312 1.11138 4.51483 1.11138 8.11801V24.8776C1.11138 28.4808 4.04309 31.4125 7.64627 31.4125H24.4058C28.009 31.4125 30.9407 28.4808 30.9407 24.8776V8.11801C30.9407 4.51483 28.009 1.58312 24.4058 1.58312H7.64627Z" fill="#FBBF24"/>
<path d="M22.2905 13.7906H9.76103C8.34081 13.7906 7.18555 12.6354 7.18555 11.2152V6.14457C7.18555 4.72435 8.34081 3.56909 9.76103 3.56909H22.2905C23.7107 3.56909 24.866 4.72435 24.866 6.14457V11.2152C24.866 12.6354 23.7107 13.7906 22.2905 13.7906ZM9.76103 4.37331C8.78466 4.37331 7.99029 5.16768 7.99029 6.14405V11.2146C7.99029 12.191 8.78466 12.9854 9.76103 12.9854H22.2905C23.2669 12.9854 24.0613 12.191 24.0613 11.2146V6.14405C24.0613 5.16768 23.2669 4.37331 22.2905 4.37331H9.76103Z" fill="#FBBF24"/>
<path d="M16.0242 12.4087C15.6851 12.4087 15.3444 12.29 15.0706 12.0489C14.7901 11.8016 14.62 11.4619 14.5884 11.0953L12.6823 9.41378C12.4728 9.22867 12.3474 8.97356 12.3303 8.6946C12.3126 8.41563 12.4049 8.14652 12.59 7.93704C12.9717 7.5046 13.6343 7.46312 14.0668 7.84475L15.9734 9.52682C16.3405 9.51334 16.6983 9.63882 16.9793 9.88667C17.5756 10.413 17.6331 11.3261 17.1068 11.9224C16.8222 12.2449 16.424 12.4098 16.0242 12.4098V12.4087ZM13.3746 8.38712C13.3077 8.38712 13.2408 8.4146 13.1936 8.46852C13.1511 8.51675 13.1298 8.57897 13.1334 8.64326C13.1376 8.70756 13.1666 8.76667 13.2148 8.80919L15.2537 10.6074C15.346 10.6888 15.3957 10.8081 15.3895 10.931C15.3786 11.1275 15.4569 11.3147 15.6042 11.4443C15.8676 11.6771 16.2715 11.6517 16.5038 11.3878C16.7361 11.1244 16.7107 10.721 16.4473 10.4882C16.3 10.3585 16.1051 10.3041 15.9122 10.3393C15.7908 10.3611 15.6659 10.3269 15.5736 10.245L13.5348 8.44623C13.4891 8.40578 13.4321 8.38608 13.3751 8.38608L13.3746 8.38712Z" fill="#FBBF24"/>
</svg>
